# xmcd
#
# Track frame offsets:
#      225
#      19284
#      35874
#      52198
#      69875
#      88463
#      102295
#      120696
#      134332
#      150097
#      165051
#      182243
#      201088
#      223906
# 
# Disc length: 3234 seconds
#
# Revision: 3
# Processed by: cddbd v1.4PL0 Copyright (c) Steve Scherf et al.
#
# Submitted via: FreeRIP 1.20
#
DISCID=c70c9f0e
DTITLE=Various Artist - Country Cares for Kids
DYEAR=1900
DGENRE=country
TTITLE0=Various Artist - Make a Miracle
TTITLE1=Clint Black - Christmas For Every Boy And Girl
TTITLE2=Martina McBride - O Holy Night
TTITLE3=Ray Vega - Take A Walk Through Bethlehem
TTITLE4=Travis Tritt - Loving Time Of Year
TTITLE5=Blackhawk - We Three Kings (Star Of Wonder)
TTITLE6=Mindy McCready - Let's Talk About Love
TTITLE7=Brian White - When You Wish Upon A Star
TTITLE8=Lonestar - I will Be Home For Christmas
TTITLE9=Sammy Kershaw wih daughter - Christmas Time's A Comin'
TTITLE10=John Berry - The Christmas Song
TTITLE11=Lorrie Morgan - Up On Santa Claus Mountain
TTITLE12=Bob Carlisle - Butterfly Kisses
TTITLE13=Alabama - Angels Among Us
EXTD=
EXTT0=
EXTT1=
EXTT2=
EXTT3=
EXTT4=
EXTT5=
EXTT6=
EXTT7=
EXTT8=
EXTT9=
EXTT10=
EXTT11=
EXTT12=
EXTT13=
PLAYORDER=
